# xmcd CD database file
#
# Track frame offsets:
#	150
#	17886
#	37356
#	73079
#	101640
#	115578
#	139648
#	155396
#	170535
#	188349
#	218330
#	229516
#	252230
#	271600
#	303589
#	328887
#
# Disc length: 4629 seconds
#
# Revision: 1
# Processed by: cddbd v1.5.2PL0 Copyright (c) Steve Scherf et al.
# Submitted via: CDex 1.51
#
DISCID=d6121310
DTITLE=Various Artist - Ghost Land - הצד המסתורי של המוסיקה
DYEAR=1999
DGENRE=New Age
TTITLE0=Yanni - Aria
TTITLE1=Mike Oldfield - Let There Be Light
TTITLE2=Ghostland - Blue
TTITLE3=Kitaro - Sundance
TTITLE4=Cocteau Twins - Throughout the Dark Months of April and May
TTITLE5=Julee Cruise - Falling
TTITLE6=This Mortal Coil - Kangaroo
TTITLE7=Arielle - Dix Mille
TTITLE8=B-Tribe - Overture (Concierto de Aranjuez)
TTITLE9=Paul Winter - Dawnwalker
TTITLE10=Clannad - Theme from Harry's Game
TTITLE11=Carla Lother - Jaelish
TTITLE12=Mikis Theodorakis - They are All Thisty (with Vassilis Saleas)
TTITLE13=אריק רודיך - אחרית
TTITLE14=Uriel - You Who are Reading Me Now (Kid Loco Love Experience Mix)
TTITLE15=George Winston - Thanksgiving
EXTD=YEAR: 1999
EXTT0=
EXTT1=
EXTT2=
EXTT3=
EXTT4=
EXTT5=
EXTT6=
EXTT7=
EXTT8=
EXTT9=
EXTT10=
EXTT11=
EXTT12=
EXTT13=
EXTT14=
EXTT15=
PLAYORDER=
